<svg width="32" height="32" viewBox="0 0 100 100" fill="none" xmlns="http://www.w3.org/2000/svg">
    <path d="M50 5C25.147 5 5 25.147 5 50C5 74.853 25.147 95 50 95C74.853 95 95 74.853 95 50C95 25.147 74.853 5 50 5Z" fill="#2D5A27"/>
    <path d="M95 50C95 25.147 74.853 5 50 5V95C74.853 95 95 74.853 95 50Z" fill="#1A3317"/>
    <path d="M50 85V40" stroke="#FFFFFF" stroke-width="6" stroke-linecap="round"/>
    <path d="M50 65C35 65 25 50 25 50" stroke="#FFFFFF" stroke-width="6" stroke-linecap="round"/>
    <path d="M50 55C65 55 75 40 75 40" stroke="#F2994A" stroke-width="6" stroke-linecap="round"/>
    <circle cx="50" cy="25" r="8" fill="#F2994A"/>
</svg>
